<mxfile host="app.diagrams.net" modified="2022-01-20T09:18:57.842Z" agent="5.0 (Windows NT 10.0; Win64; x64) AppleWebKit/537.36 (KHTML, like Gecko) Chrome/97.0.4692.71 Safari/537.36" etag="dytRhFtoEOyqNkYjZvdv" version="16.2.7" type="github" pages="5">
  <diagram id="SD_GLQ9VekcqfIouxr11" name="RNA-seq常规分析流程">
    <mxGraphModel dx="1422" dy="762" grid="1" gridSize="10" guides="1" tooltips="1" connect="1" arrows="1" fold="1" page="1" pageScale="1" pageWidth="827" pageHeight="1169" background="#ffffff" math="0" shadow="0">
      <root>
        <mxCell id="HQpAR4vY4TTFvMgATuz_-0" />
        <mxCell id="HQpAR4vY4TTFvMgATuz_-1" parent="HQpAR4vY4TTFvMgATuz_-0" />
        <mxCell id="7me5INYPsJIEHoTj8Pcg-12" value="" style="edgeStyle=orthogonalEdgeStyle;shape=connector;curved=1;rounded=0;jumpStyle=none;jumpSize=6;orthogonalLoop=1;jettySize=auto;html=1;labelBackgroundColor=default;fontFamily=Times New Roman;fontSize=14;fontColor=default;endArrow=classic;endSize=6;targetPerimeterSpacing=0;strokeColor=default;" parent="HQpAR4vY4TTFvMgATuz_-1" source="7me5INYPsJIEHoTj8Pcg-0" target="7me5INYPsJIEHoTj8Pcg-11" edge="1">
          <mxGeometry relative="1" as="geometry" />
        </mxCell>
        <mxCell id="7me5INYPsJIEHoTj8Pcg-0" value="原始数据&lt;br style=&quot;font-size: 14px;&quot;&gt;（fastq)" style="ellipse;whiteSpace=wrap;html=1;fontFamily=Times New Roman;fontSize=14;" parent="HQpAR4vY4TTFvMgATuz_-1" vertex="1">
          <mxGeometry x="354" y="110" width="120" height="80" as="geometry" />
        </mxCell>
        <mxCell id="7me5INYPsJIEHoTj8Pcg-16" value="" style="edgeStyle=orthogonalEdgeStyle;shape=connector;curved=1;rounded=0;jumpStyle=none;jumpSize=6;orthogonalLoop=1;jettySize=auto;html=1;labelBackgroundColor=default;fontFamily=Times New Roman;fontSize=14;fontColor=default;endArrow=classic;endSize=6;targetPerimeterSpacing=0;strokeColor=default;" parent="HQpAR4vY4TTFvMgATuz_-1" source="7me5INYPsJIEHoTj8Pcg-11" target="7me5INYPsJIEHoTj8Pcg-15" edge="1">
          <mxGeometry relative="1" as="geometry" />
        </mxCell>
        <mxCell id="7me5INYPsJIEHoTj8Pcg-33" value="" style="edgeStyle=orthogonalEdgeStyle;shape=connector;curved=1;rounded=0;jumpStyle=none;jumpSize=6;orthogonalLoop=1;jettySize=auto;html=1;labelBackgroundColor=default;fontFamily=Times New Roman;fontSize=14;fontColor=default;endArrow=classic;endSize=6;targetPerimeterSpacing=0;strokeColor=default;" parent="HQpAR4vY4TTFvMgATuz_-1" source="7me5INYPsJIEHoTj8Pcg-11" target="7me5INYPsJIEHoTj8Pcg-32" edge="1">
          <mxGeometry relative="1" as="geometry" />
        </mxCell>
        <mxCell id="7me5INYPsJIEHoTj8Pcg-11" value="clean data&lt;br style=&quot;font-size: 14px;&quot;&gt;(trimmed fastq)" style="ellipse;whiteSpace=wrap;html=1;align=center;verticalAlign=middle;textDirection=ltr;fontFamily=Times New Roman;fontSize=14;" parent="HQpAR4vY4TTFvMgATuz_-1" vertex="1">
          <mxGeometry x="354" y="270" width="120" height="80" as="geometry" />
        </mxCell>
        <mxCell id="7me5INYPsJIEHoTj8Pcg-14" style="edgeStyle=orthogonalEdgeStyle;shape=connector;curved=1;rounded=0;jumpStyle=none;jumpSize=6;orthogonalLoop=1;jettySize=auto;html=1;exitX=0;exitY=0.5;exitDx=0;exitDy=0;labelBackgroundColor=default;fontFamily=Times New Roman;fontSize=14;fontColor=default;endArrow=classic;endSize=6;targetPerimeterSpacing=0;strokeColor=default;" parent="HQpAR4vY4TTFvMgATuz_-1" source="7me5INYPsJIEHoTj8Pcg-13" edge="1">
          <mxGeometry relative="1" as="geometry">
            <mxPoint x="420" y="230" as="targetPoint" />
          </mxGeometry>
        </mxCell>
        <mxCell id="7me5INYPsJIEHoTj8Pcg-13" value="去除&lt;br style=&quot;font-size: 14px;&quot;&gt;接头&amp;amp;低质量序列" style="rounded=1;whiteSpace=wrap;html=1;fontFamily=Times New Roman;fontSize=14;fontColor=default;" parent="HQpAR4vY4TTFvMgATuz_-1" vertex="1">
          <mxGeometry x="470" y="200" width="120" height="60" as="geometry" />
        </mxCell>
        <mxCell id="7me5INYPsJIEHoTj8Pcg-21" value="" style="edgeStyle=orthogonalEdgeStyle;shape=connector;curved=1;rounded=0;jumpStyle=none;jumpSize=6;orthogonalLoop=1;jettySize=auto;html=1;labelBackgroundColor=default;fontFamily=Times New Roman;fontSize=14;fontColor=default;endArrow=classic;endSize=6;targetPerimeterSpacing=0;strokeColor=default;" parent="HQpAR4vY4TTFvMgATuz_-1" source="7me5INYPsJIEHoTj8Pcg-15" target="7me5INYPsJIEHoTj8Pcg-20" edge="1">
          <mxGeometry relative="1" as="geometry" />
        </mxCell>
        <mxCell id="7me5INYPsJIEHoTj8Pcg-39" value="" style="edgeStyle=orthogonalEdgeStyle;shape=connector;curved=1;rounded=0;jumpStyle=none;jumpSize=6;orthogonalLoop=1;jettySize=auto;html=1;labelBackgroundColor=default;fontFamily=Times New Roman;fontSize=14;fontColor=default;endArrow=classic;endSize=6;targetPerimeterSpacing=0;strokeColor=default;" parent="HQpAR4vY4TTFvMgATuz_-1" source="7me5INYPsJIEHoTj8Pcg-15" target="7me5INYPsJIEHoTj8Pcg-38" edge="1">
          <mxGeometry relative="1" as="geometry" />
        </mxCell>
        <mxCell id="7me5INYPsJIEHoTj8Pcg-15" value="比对结果&lt;br style=&quot;font-size: 14px;&quot;&gt;（sam/bam）" style="ellipse;whiteSpace=wrap;html=1;fontFamily=Times New Roman;fontSize=14;" parent="HQpAR4vY4TTFvMgATuz_-1" vertex="1">
          <mxGeometry x="354" y="440" width="120" height="60" as="geometry" />
        </mxCell>
        <mxCell id="7me5INYPsJIEHoTj8Pcg-18" style="edgeStyle=orthogonalEdgeStyle;shape=connector;curved=1;rounded=0;jumpStyle=none;jumpSize=6;orthogonalLoop=1;jettySize=auto;html=1;exitX=0;exitY=0.5;exitDx=0;exitDy=0;labelBackgroundColor=default;fontFamily=Times New Roman;fontSize=14;fontColor=default;endArrow=classic;endSize=6;targetPerimeterSpacing=0;strokeColor=default;" parent="HQpAR4vY4TTFvMgATuz_-1" source="7me5INYPsJIEHoTj8Pcg-19" edge="1">
          <mxGeometry relative="1" as="geometry">
            <mxPoint x="420" y="390" as="targetPoint" />
          </mxGeometry>
        </mxCell>
        <mxCell id="7me5INYPsJIEHoTj8Pcg-19" value="参考基因组比对" style="rounded=1;whiteSpace=wrap;html=1;fontFamily=Times New Roman;fontSize=14;fontColor=default;" parent="HQpAR4vY4TTFvMgATuz_-1" vertex="1">
          <mxGeometry x="470" y="360" width="120" height="60" as="geometry" />
        </mxCell>
        <mxCell id="7me5INYPsJIEHoTj8Pcg-25" value="" style="edgeStyle=orthogonalEdgeStyle;shape=connector;curved=1;rounded=0;jumpStyle=none;jumpSize=6;orthogonalLoop=1;jettySize=auto;html=1;labelBackgroundColor=default;fontFamily=Times New Roman;fontSize=14;fontColor=default;endArrow=classic;endSize=6;targetPerimeterSpacing=0;strokeColor=default;" parent="HQpAR4vY4TTFvMgATuz_-1" source="7me5INYPsJIEHoTj8Pcg-20" target="7me5INYPsJIEHoTj8Pcg-24" edge="1">
          <mxGeometry relative="1" as="geometry" />
        </mxCell>
        <mxCell id="7me5INYPsJIEHoTj8Pcg-41" value="" style="edgeStyle=orthogonalEdgeStyle;shape=connector;curved=1;rounded=0;jumpStyle=none;jumpSize=6;orthogonalLoop=1;jettySize=auto;html=1;labelBackgroundColor=default;fontFamily=Times New Roman;fontSize=14;fontColor=default;endArrow=classic;endSize=6;targetPerimeterSpacing=0;strokeColor=default;" parent="HQpAR4vY4TTFvMgATuz_-1" source="7me5INYPsJIEHoTj8Pcg-20" target="7me5INYPsJIEHoTj8Pcg-40" edge="1">
          <mxGeometry relative="1" as="geometry" />
        </mxCell>
        <mxCell id="7me5INYPsJIEHoTj8Pcg-20" value="原始表达谱&lt;br style=&quot;font-size: 14px;&quot;&gt;（count matrix）" style="ellipse;whiteSpace=wrap;html=1;fontFamily=Times New Roman;fontSize=14;" parent="HQpAR4vY4TTFvMgATuz_-1" vertex="1">
          <mxGeometry x="354" y="580" width="120" height="60" as="geometry" />
        </mxCell>
        <mxCell id="7me5INYPsJIEHoTj8Pcg-22" style="edgeStyle=orthogonalEdgeStyle;shape=connector;curved=1;rounded=0;jumpStyle=none;jumpSize=6;orthogonalLoop=1;jettySize=auto;html=1;exitX=0;exitY=0.5;exitDx=0;exitDy=0;labelBackgroundColor=default;fontFamily=Times New Roman;fontSize=14;fontColor=default;endArrow=classic;endSize=6;targetPerimeterSpacing=0;strokeColor=default;" parent="HQpAR4vY4TTFvMgATuz_-1" source="7me5INYPsJIEHoTj8Pcg-23" edge="1">
          <mxGeometry relative="1" as="geometry">
            <mxPoint x="420" y="540" as="targetPoint" />
          </mxGeometry>
        </mxCell>
        <mxCell id="7me5INYPsJIEHoTj8Pcg-23" value="RNA&lt;br style=&quot;font-size: 14px;&quot;&gt;（鉴定&amp;amp;定量）" style="rounded=1;whiteSpace=wrap;html=1;fontFamily=Times New Roman;fontSize=14;fontColor=default;" parent="HQpAR4vY4TTFvMgATuz_-1" vertex="1">
          <mxGeometry x="470" y="510" width="120" height="60" as="geometry" />
        </mxCell>
        <mxCell id="7me5INYPsJIEHoTj8Pcg-37" value="" style="edgeStyle=orthogonalEdgeStyle;shape=connector;curved=1;rounded=0;jumpStyle=none;jumpSize=6;orthogonalLoop=1;jettySize=auto;html=1;labelBackgroundColor=default;fontFamily=Times New Roman;fontSize=14;fontColor=default;endArrow=classic;endSize=6;targetPerimeterSpacing=0;strokeColor=default;" parent="HQpAR4vY4TTFvMgATuz_-1" source="7me5INYPsJIEHoTj8Pcg-24" target="7me5INYPsJIEHoTj8Pcg-36" edge="1">
          <mxGeometry relative="1" as="geometry" />
        </mxCell>
        <mxCell id="7me5INYPsJIEHoTj8Pcg-45" value="" style="edgeStyle=orthogonalEdgeStyle;shape=connector;curved=1;rounded=0;jumpStyle=none;jumpSize=6;orthogonalLoop=1;jettySize=auto;html=1;labelBackgroundColor=default;fontFamily=Times New Roman;fontSize=14;fontColor=default;endArrow=classic;endSize=6;targetPerimeterSpacing=0;strokeColor=default;" parent="HQpAR4vY4TTFvMgATuz_-1" source="7me5INYPsJIEHoTj8Pcg-24" target="7me5INYPsJIEHoTj8Pcg-44" edge="1">
          <mxGeometry relative="1" as="geometry" />
        </mxCell>
        <mxCell id="7me5INYPsJIEHoTj8Pcg-24" value="差异表达&lt;br style=&quot;font-size: 14px;&quot;&gt;基因/转录本" style="ellipse;whiteSpace=wrap;html=1;fontFamily=Times New Roman;fontSize=14;" parent="HQpAR4vY4TTFvMgATuz_-1" vertex="1">
          <mxGeometry x="354" y="720" width="120" height="60" as="geometry" />
        </mxCell>
        <mxCell id="7me5INYPsJIEHoTj8Pcg-26" style="edgeStyle=orthogonalEdgeStyle;shape=connector;curved=1;rounded=0;jumpStyle=none;jumpSize=6;orthogonalLoop=1;jettySize=auto;html=1;exitX=0;exitY=0.5;exitDx=0;exitDy=0;labelBackgroundColor=default;fontFamily=Times New Roman;fontSize=14;fontColor=default;endArrow=classic;endSize=6;targetPerimeterSpacing=0;strokeColor=default;" parent="HQpAR4vY4TTFvMgATuz_-1" source="7me5INYPsJIEHoTj8Pcg-27" edge="1">
          <mxGeometry relative="1" as="geometry">
            <mxPoint x="420" y="680" as="targetPoint" />
          </mxGeometry>
        </mxCell>
        <mxCell id="7me5INYPsJIEHoTj8Pcg-27" value="差异表达分析" style="rounded=1;whiteSpace=wrap;html=1;fontFamily=Times New Roman;fontSize=14;fontColor=default;" parent="HQpAR4vY4TTFvMgATuz_-1" vertex="1">
          <mxGeometry x="470" y="650" width="120" height="60" as="geometry" />
        </mxCell>
        <mxCell id="7me5INYPsJIEHoTj8Pcg-32" value="序列质量评估&lt;br style=&quot;font-size: 14px;&quot;&gt;（fastQC)" style="shape=hexagon;perimeter=hexagonPerimeter2;whiteSpace=wrap;html=1;fixedSize=1;fontFamily=Times New Roman;fontSize=14;" parent="HQpAR4vY4TTFvMgATuz_-1" vertex="1">
          <mxGeometry x="154" y="270" width="120" height="80" as="geometry" />
        </mxCell>
        <mxCell id="7me5INYPsJIEHoTj8Pcg-36" value="GO/KEGG&lt;br style=&quot;font-size: 14px;&quot;&gt;富集结果" style="ellipse;whiteSpace=wrap;html=1;fontFamily=Times New Roman;fontSize=14;" parent="HQpAR4vY4TTFvMgATuz_-1" vertex="1">
          <mxGeometry x="354" y="860" width="120" height="60" as="geometry" />
        </mxCell>
        <mxCell id="7me5INYPsJIEHoTj8Pcg-38" value="比对质量评估&lt;br style=&quot;font-size: 14px;&quot;&gt;(统计比对情况)" style="shape=hexagon;perimeter=hexagonPerimeter2;whiteSpace=wrap;html=1;fixedSize=1;fontFamily=Times New Roman;fontSize=14;" parent="HQpAR4vY4TTFvMgATuz_-1" vertex="1">
          <mxGeometry x="154" y="430" width="120" height="80" as="geometry" />
        </mxCell>
        <mxCell id="7me5INYPsJIEHoTj8Pcg-40" value="RNA 表达探索&lt;br style=&quot;font-size: 14px&quot;&gt;（PCA等）" style="shape=hexagon;perimeter=hexagonPerimeter2;whiteSpace=wrap;html=1;fixedSize=1;fontFamily=Times New Roman;fontSize=14;" parent="HQpAR4vY4TTFvMgATuz_-1" vertex="1">
          <mxGeometry x="154" y="570" width="120" height="80" as="geometry" />
        </mxCell>
        <mxCell id="7me5INYPsJIEHoTj8Pcg-42" style="edgeStyle=orthogonalEdgeStyle;shape=connector;curved=1;rounded=0;jumpStyle=none;jumpSize=6;orthogonalLoop=1;jettySize=auto;html=1;exitX=0;exitY=0.5;exitDx=0;exitDy=0;labelBackgroundColor=default;fontFamily=Times New Roman;fontSize=14;fontColor=default;endArrow=classic;endSize=6;targetPerimeterSpacing=0;strokeColor=default;" parent="HQpAR4vY4TTFvMgATuz_-1" source="7me5INYPsJIEHoTj8Pcg-43" edge="1">
          <mxGeometry relative="1" as="geometry">
            <mxPoint x="420" y="820" as="targetPoint" />
          </mxGeometry>
        </mxCell>
        <mxCell id="7me5INYPsJIEHoTj8Pcg-43" value="富集分析" style="rounded=1;whiteSpace=wrap;html=1;fontFamily=Times New Roman;fontSize=14;fontColor=default;" parent="HQpAR4vY4TTFvMgATuz_-1" vertex="1">
          <mxGeometry x="470" y="790" width="120" height="60" as="geometry" />
        </mxCell>
        <mxCell id="7me5INYPsJIEHoTj8Pcg-44" value="差异状态评估" style="shape=hexagon;perimeter=hexagonPerimeter2;whiteSpace=wrap;html=1;fixedSize=1;fontFamily=Times New Roman;fontSize=14;" parent="HQpAR4vY4TTFvMgATuz_-1" vertex="1">
          <mxGeometry x="154" y="710" width="120" height="80" as="geometry" />
        </mxCell>
      </root>
    </mxGraphModel>
  </diagram>
  <diagram id="-Aa7ZXhrVIdaePOv4zky" name="mRNA分析">
    <mxGraphModel dx="1896" dy="2110" grid="1" gridSize="10" guides="1" tooltips="1" connect="1" arrows="1" fold="1" page="1" pageScale="1" pageWidth="827" pageHeight="1169" math="0" shadow="0">
      <root>
        <mxCell id="737hnoTCpdToOq-JtSO7-0" />
        <mxCell id="737hnoTCpdToOq-JtSO7-1" parent="737hnoTCpdToOq-JtSO7-0" />
        <mxCell id="RjeMHaFso97DG9LdphT8-2" value="" style="edgeStyle=entityRelationEdgeStyle;shape=connector;rounded=0;jumpStyle=none;jumpSize=6;orthogonalLoop=1;jettySize=auto;html=1;labelBackgroundColor=default;fontFamily=Times New Roman;fontSize=14;fontColor=default;endArrow=classic;endSize=6;targetPerimeterSpacing=0;strokeColor=default;" edge="1" parent="737hnoTCpdToOq-JtSO7-1" target="RjeMHaFso97DG9LdphT8-1">
          <mxGeometry relative="1" as="geometry">
            <mxPoint x="152" y="360" as="sourcePoint" />
          </mxGeometry>
        </mxCell>
        <mxCell id="RjeMHaFso97DG9LdphT8-4" value="" style="edgeStyle=entityRelationEdgeStyle;shape=connector;rounded=0;jumpStyle=none;jumpSize=6;orthogonalLoop=1;jettySize=auto;html=1;labelBackgroundColor=default;fontFamily=Times New Roman;fontSize=14;fontColor=default;endArrow=classic;endSize=6;targetPerimeterSpacing=0;strokeColor=default;" edge="1" parent="737hnoTCpdToOq-JtSO7-1" target="RjeMHaFso97DG9LdphT8-3">
          <mxGeometry relative="1" as="geometry">
            <mxPoint x="152" y="360" as="sourcePoint" />
          </mxGeometry>
        </mxCell>
        <mxCell id="6Nz1xkXPyrb21D1Xhfl5-1" value="" style="edgeStyle=entityRelationEdgeStyle;shape=connector;rounded=0;jumpStyle=none;jumpSize=6;orthogonalLoop=1;jettySize=auto;html=1;labelBackgroundColor=default;fontFamily=Times New Roman;fontSize=14;fontColor=default;endArrow=classic;endSize=6;targetPerimeterSpacing=0;strokeColor=default;" edge="1" parent="737hnoTCpdToOq-JtSO7-1" source="RjeMHaFso97DG9LdphT8-0" target="6Nz1xkXPyrb21D1Xhfl5-0">
          <mxGeometry relative="1" as="geometry" />
        </mxCell>
        <mxCell id="RjeMHaFso97DG9LdphT8-0" value="mRNA" style="rounded=1;whiteSpace=wrap;html=1;fontFamily=Times New Roman;fontSize=14;fontColor=default;" vertex="1" parent="737hnoTCpdToOq-JtSO7-1">
          <mxGeometry x="60" y="330" width="120" height="60" as="geometry" />
        </mxCell>
        <mxCell id="RjeMHaFso97DG9LdphT8-6" value="" style="edgeStyle=entityRelationEdgeStyle;shape=connector;rounded=0;jumpStyle=none;jumpSize=6;orthogonalLoop=1;jettySize=auto;html=1;labelBackgroundColor=default;fontFamily=Times New Roman;fontSize=14;fontColor=default;endArrow=classic;endSize=6;targetPerimeterSpacing=0;strokeColor=default;" edge="1" parent="737hnoTCpdToOq-JtSO7-1" source="RjeMHaFso97DG9LdphT8-1" target="RjeMHaFso97DG9LdphT8-5">
          <mxGeometry relative="1" as="geometry" />
        </mxCell>
        <mxCell id="RjeMHaFso97DG9LdphT8-8" value="" style="edgeStyle=entityRelationEdgeStyle;shape=connector;rounded=0;jumpStyle=none;jumpSize=6;orthogonalLoop=1;jettySize=auto;html=1;labelBackgroundColor=default;fontFamily=Times New Roman;fontSize=14;fontColor=default;endArrow=classic;endSize=6;targetPerimeterSpacing=0;strokeColor=default;" edge="1" parent="737hnoTCpdToOq-JtSO7-1" source="RjeMHaFso97DG9LdphT8-1" target="RjeMHaFso97DG9LdphT8-7">
          <mxGeometry relative="1" as="geometry" />
        </mxCell>
        <mxCell id="J89nL--Rx-JcG2ZnWHkW-0" value="" style="edgeStyle=entityRelationEdgeStyle;shape=connector;rounded=0;jumpStyle=none;jumpSize=6;orthogonalLoop=1;jettySize=auto;html=1;labelBackgroundColor=default;fontFamily=Times New Roman;fontSize=14;fontColor=default;endArrow=classic;endSize=6;targetPerimeterSpacing=0;strokeColor=default;" edge="1" parent="737hnoTCpdToOq-JtSO7-1" source="RjeMHaFso97DG9LdphT8-1" target="RjeMHaFso97DG9LdphT8-7">
          <mxGeometry relative="1" as="geometry" />
        </mxCell>
        <mxCell id="J89nL--Rx-JcG2ZnWHkW-2" value="" style="edgeStyle=entityRelationEdgeStyle;shape=connector;rounded=0;jumpStyle=none;jumpSize=6;orthogonalLoop=1;jettySize=auto;html=1;labelBackgroundColor=default;fontFamily=Times New Roman;fontSize=14;fontColor=default;endArrow=classic;endSize=6;targetPerimeterSpacing=0;strokeColor=default;" edge="1" parent="737hnoTCpdToOq-JtSO7-1" source="RjeMHaFso97DG9LdphT8-1" target="J89nL--Rx-JcG2ZnWHkW-1">
          <mxGeometry relative="1" as="geometry" />
        </mxCell>
        <mxCell id="RjeMHaFso97DG9LdphT8-1" value="数据库注释" style="whiteSpace=wrap;html=1;fontSize=14;fontFamily=Times New Roman;rounded=1;" vertex="1" parent="737hnoTCpdToOq-JtSO7-1">
          <mxGeometry x="248" y="80" width="120" height="60" as="geometry" />
        </mxCell>
        <mxCell id="RjeMHaFso97DG9LdphT8-14" value="" style="edgeStyle=entityRelationEdgeStyle;shape=connector;rounded=0;jumpStyle=none;jumpSize=6;orthogonalLoop=1;jettySize=auto;html=1;labelBackgroundColor=default;fontFamily=Times New Roman;fontSize=14;fontColor=default;endArrow=classic;endSize=6;targetPerimeterSpacing=0;strokeColor=default;" edge="1" parent="737hnoTCpdToOq-JtSO7-1" source="RjeMHaFso97DG9LdphT8-3" target="RjeMHaFso97DG9LdphT8-13">
          <mxGeometry relative="1" as="geometry" />
        </mxCell>
        <mxCell id="RjeMHaFso97DG9LdphT8-18" value="" style="edgeStyle=entityRelationEdgeStyle;shape=connector;rounded=0;jumpStyle=none;jumpSize=6;orthogonalLoop=1;jettySize=auto;html=1;labelBackgroundColor=default;fontFamily=Times New Roman;fontSize=14;fontColor=default;endArrow=classic;endSize=6;targetPerimeterSpacing=0;strokeColor=default;" edge="1" parent="737hnoTCpdToOq-JtSO7-1" source="RjeMHaFso97DG9LdphT8-3" target="RjeMHaFso97DG9LdphT8-17">
          <mxGeometry relative="1" as="geometry" />
        </mxCell>
        <mxCell id="RjeMHaFso97DG9LdphT8-20" value="" style="edgeStyle=entityRelationEdgeStyle;shape=connector;rounded=0;jumpStyle=none;jumpSize=6;orthogonalLoop=1;jettySize=auto;html=1;labelBackgroundColor=default;fontFamily=Times New Roman;fontSize=14;fontColor=default;endArrow=classic;endSize=6;targetPerimeterSpacing=0;strokeColor=default;" edge="1" parent="737hnoTCpdToOq-JtSO7-1" source="RjeMHaFso97DG9LdphT8-3" target="RjeMHaFso97DG9LdphT8-19">
          <mxGeometry relative="1" as="geometry" />
        </mxCell>
        <mxCell id="RjeMHaFso97DG9LdphT8-22" value="" style="edgeStyle=entityRelationEdgeStyle;shape=connector;rounded=0;jumpStyle=none;jumpSize=6;orthogonalLoop=1;jettySize=auto;html=1;labelBackgroundColor=default;fontFamily=Times New Roman;fontSize=14;fontColor=default;endArrow=classic;endSize=6;targetPerimeterSpacing=0;strokeColor=default;" edge="1" parent="737hnoTCpdToOq-JtSO7-1" source="RjeMHaFso97DG9LdphT8-3" target="RjeMHaFso97DG9LdphT8-21">
          <mxGeometry relative="1" as="geometry" />
        </mxCell>
        <mxCell id="yYjXmdsJIR3vJSGxp3he-1" value="" style="edgeStyle=entityRelationEdgeStyle;shape=connector;rounded=0;jumpStyle=none;jumpSize=6;orthogonalLoop=1;jettySize=auto;html=1;labelBackgroundColor=default;fontFamily=Times New Roman;fontSize=14;fontColor=default;endArrow=classic;endSize=6;targetPerimeterSpacing=0;strokeColor=default;" edge="1" parent="737hnoTCpdToOq-JtSO7-1" source="RjeMHaFso97DG9LdphT8-3" target="yYjXmdsJIR3vJSGxp3he-0">
          <mxGeometry relative="1" as="geometry" />
        </mxCell>
        <mxCell id="RjeMHaFso97DG9LdphT8-3" value="互作网络" style="whiteSpace=wrap;html=1;fontSize=14;fontFamily=Times New Roman;rounded=1;" vertex="1" parent="737hnoTCpdToOq-JtSO7-1">
          <mxGeometry x="220" y="688" width="120" height="60" as="geometry" />
        </mxCell>
        <mxCell id="RjeMHaFso97DG9LdphT8-5" value="转录因子注释" style="whiteSpace=wrap;html=1;fontSize=14;fontFamily=Times New Roman;rounded=1;" vertex="1" parent="737hnoTCpdToOq-JtSO7-1">
          <mxGeometry x="448" y="80" width="120" height="60" as="geometry" />
        </mxCell>
        <mxCell id="RjeMHaFso97DG9LdphT8-7" value="GSEA" style="whiteSpace=wrap;html=1;fontSize=14;fontFamily=Times New Roman;rounded=1;" vertex="1" parent="737hnoTCpdToOq-JtSO7-1">
          <mxGeometry x="449" y="-50" width="120" height="60" as="geometry" />
        </mxCell>
        <mxCell id="RjeMHaFso97DG9LdphT8-13" value="miRNA-mRNA&lt;br&gt;调控网络" style="whiteSpace=wrap;html=1;fontSize=14;fontFamily=Times New Roman;rounded=1;" vertex="1" parent="737hnoTCpdToOq-JtSO7-1">
          <mxGeometry x="439" y="533" width="120" height="60" as="geometry" />
        </mxCell>
        <mxCell id="RjeMHaFso97DG9LdphT8-17" value="蛋白质&lt;br&gt;互作网络" style="whiteSpace=wrap;html=1;fontSize=14;fontFamily=Times New Roman;rounded=1;" vertex="1" parent="737hnoTCpdToOq-JtSO7-1">
          <mxGeometry x="439" y="605" width="120" height="60" as="geometry" />
        </mxCell>
        <mxCell id="VHP0A_szdQ9qY3dpZ6-1-1" value="" style="edgeStyle=entityRelationEdgeStyle;shape=connector;rounded=0;jumpStyle=none;jumpSize=6;orthogonalLoop=1;jettySize=auto;html=1;labelBackgroundColor=default;fontFamily=Times New Roman;fontSize=14;fontColor=default;endArrow=classic;endSize=6;targetPerimeterSpacing=0;strokeColor=default;" edge="1" parent="737hnoTCpdToOq-JtSO7-1" source="RjeMHaFso97DG9LdphT8-19" target="VHP0A_szdQ9qY3dpZ6-1-0">
          <mxGeometry relative="1" as="geometry" />
        </mxCell>
        <mxCell id="VHP0A_szdQ9qY3dpZ6-1-3" value="" style="edgeStyle=entityRelationEdgeStyle;shape=connector;rounded=0;jumpStyle=none;jumpSize=6;orthogonalLoop=1;jettySize=auto;html=1;labelBackgroundColor=default;fontFamily=Times New Roman;fontSize=14;fontColor=default;endArrow=classic;endSize=6;targetPerimeterSpacing=0;strokeColor=default;" edge="1" parent="737hnoTCpdToOq-JtSO7-1" source="RjeMHaFso97DG9LdphT8-19" target="VHP0A_szdQ9qY3dpZ6-1-2">
          <mxGeometry relative="1" as="geometry" />
        </mxCell>
        <mxCell id="BoAjOB0TKaHnWaA86Mb_-1" value="" style="edgeStyle=entityRelationEdgeStyle;shape=connector;rounded=0;jumpStyle=none;jumpSize=6;orthogonalLoop=1;jettySize=auto;html=1;labelBackgroundColor=default;fontFamily=Times New Roman;fontSize=14;fontColor=default;endArrow=classic;endSize=6;targetPerimeterSpacing=0;strokeColor=default;" edge="1" parent="737hnoTCpdToOq-JtSO7-1" source="RjeMHaFso97DG9LdphT8-19" target="BoAjOB0TKaHnWaA86Mb_-0">
          <mxGeometry relative="1" as="geometry" />
        </mxCell>
        <mxCell id="RjeMHaFso97DG9LdphT8-19" value="共表达&lt;br&gt;互作网络" style="whiteSpace=wrap;html=1;fontSize=14;fontFamily=Times New Roman;rounded=1;" vertex="1" parent="737hnoTCpdToOq-JtSO7-1">
          <mxGeometry x="439" y="784.5" width="120" height="60" as="geometry" />
        </mxCell>
        <mxCell id="RjeMHaFso97DG9LdphT8-21" value="ceRNA&lt;br&gt;调控网络" style="whiteSpace=wrap;html=1;fontSize=14;fontFamily=Times New Roman;rounded=1;" vertex="1" parent="737hnoTCpdToOq-JtSO7-1">
          <mxGeometry x="439" y="688" width="120" height="60" as="geometry" />
        </mxCell>
        <mxCell id="yYjXmdsJIR3vJSGxp3he-0" value="驱动基因&lt;br&gt;网络" style="whiteSpace=wrap;html=1;fontSize=14;fontFamily=Times New Roman;rounded=1;" vertex="1" parent="737hnoTCpdToOq-JtSO7-1">
          <mxGeometry x="439" y="880" width="120" height="60" as="geometry" />
        </mxCell>
        <mxCell id="6Nz1xkXPyrb21D1Xhfl5-3" value="" style="edgeStyle=entityRelationEdgeStyle;shape=connector;rounded=0;jumpStyle=none;jumpSize=6;orthogonalLoop=1;jettySize=auto;html=1;labelBackgroundColor=default;fontFamily=Times New Roman;fontSize=14;fontColor=default;endArrow=classic;endSize=6;targetPerimeterSpacing=0;strokeColor=default;" edge="1" parent="737hnoTCpdToOq-JtSO7-1" source="6Nz1xkXPyrb21D1Xhfl5-0" target="6Nz1xkXPyrb21D1Xhfl5-2">
          <mxGeometry relative="1" as="geometry" />
        </mxCell>
        <mxCell id="6Nz1xkXPyrb21D1Xhfl5-5" value="" style="edgeStyle=entityRelationEdgeStyle;shape=connector;rounded=0;jumpStyle=none;jumpSize=6;orthogonalLoop=1;jettySize=auto;html=1;labelBackgroundColor=default;fontFamily=Times New Roman;fontSize=14;fontColor=default;endArrow=classic;endSize=6;targetPerimeterSpacing=0;strokeColor=default;" edge="1" parent="737hnoTCpdToOq-JtSO7-1" source="6Nz1xkXPyrb21D1Xhfl5-0" target="6Nz1xkXPyrb21D1Xhfl5-4">
          <mxGeometry relative="1" as="geometry" />
        </mxCell>
        <mxCell id="7Q60qSch_FEgxLCY1BbG-1" value="" style="edgeStyle=entityRelationEdgeStyle;shape=connector;rounded=0;jumpStyle=none;jumpSize=6;orthogonalLoop=1;jettySize=auto;html=1;labelBackgroundColor=default;fontFamily=Times New Roman;fontSize=14;fontColor=default;endArrow=classic;endSize=6;targetPerimeterSpacing=0;strokeColor=default;" edge="1" parent="737hnoTCpdToOq-JtSO7-1" source="6Nz1xkXPyrb21D1Xhfl5-0" target="7Q60qSch_FEgxLCY1BbG-0">
          <mxGeometry relative="1" as="geometry" />
        </mxCell>
        <mxCell id="6Nz1xkXPyrb21D1Xhfl5-0" value="结构分析" style="whiteSpace=wrap;html=1;fontSize=14;fontFamily=Times New Roman;rounded=1;" vertex="1" parent="737hnoTCpdToOq-JtSO7-1">
          <mxGeometry x="250" y="330" width="120" height="60" as="geometry" />
        </mxCell>
        <mxCell id="6Nz1xkXPyrb21D1Xhfl5-2" value="融合基因" style="whiteSpace=wrap;html=1;fontSize=14;fontFamily=Times New Roman;rounded=1;" vertex="1" parent="737hnoTCpdToOq-JtSO7-1">
          <mxGeometry x="450" y="330" width="120" height="60" as="geometry" />
        </mxCell>
        <mxCell id="6Nz1xkXPyrb21D1Xhfl5-4" value="可变剪切" style="whiteSpace=wrap;html=1;fontSize=14;fontFamily=Times New Roman;rounded=1;" vertex="1" parent="737hnoTCpdToOq-JtSO7-1">
          <mxGeometry x="451" y="420" width="120" height="60" as="geometry" />
        </mxCell>
        <mxCell id="J89nL--Rx-JcG2ZnWHkW-4" value="" style="edgeStyle=entityRelationEdgeStyle;shape=connector;rounded=0;jumpStyle=none;jumpSize=6;orthogonalLoop=1;jettySize=auto;html=1;labelBackgroundColor=default;fontFamily=Times New Roman;fontSize=14;fontColor=default;endArrow=classic;endSize=6;targetPerimeterSpacing=0;strokeColor=default;" edge="1" parent="737hnoTCpdToOq-JtSO7-1" source="J89nL--Rx-JcG2ZnWHkW-1" target="J89nL--Rx-JcG2ZnWHkW-3">
          <mxGeometry relative="1" as="geometry" />
        </mxCell>
        <mxCell id="J89nL--Rx-JcG2ZnWHkW-1" value="同源性分析" style="whiteSpace=wrap;html=1;fontSize=14;fontFamily=Times New Roman;rounded=1;" vertex="1" parent="737hnoTCpdToOq-JtSO7-1">
          <mxGeometry x="449" y="180" width="120" height="60" as="geometry" />
        </mxCell>
        <mxCell id="J89nL--Rx-JcG2ZnWHkW-3" value="&lt;span&gt;Rfam/Pfam/COG&lt;/span&gt;&lt;br&gt;&lt;span&gt;/EggNOG/InterPro&lt;/span&gt;" style="whiteSpace=wrap;html=1;fontSize=14;fontFamily=Times New Roman;rounded=1;" vertex="1" parent="737hnoTCpdToOq-JtSO7-1">
          <mxGeometry x="639" y="180" width="120" height="60" as="geometry" />
        </mxCell>
        <mxCell id="VHP0A_szdQ9qY3dpZ6-1-0" value="WGCNA" style="whiteSpace=wrap;html=1;fontSize=14;fontFamily=Times New Roman;rounded=1;" vertex="1" parent="737hnoTCpdToOq-JtSO7-1">
          <mxGeometry x="639" y="784.5" width="120" height="60" as="geometry" />
        </mxCell>
        <mxCell id="VHP0A_szdQ9qY3dpZ6-1-2" value="MEGENA" style="whiteSpace=wrap;html=1;fontSize=14;fontFamily=Times New Roman;rounded=1;" vertex="1" parent="737hnoTCpdToOq-JtSO7-1">
          <mxGeometry x="639" y="860" width="120" height="60" as="geometry" />
        </mxCell>
        <mxCell id="BoAjOB0TKaHnWaA86Mb_-0" value="pearson/spearman" style="whiteSpace=wrap;html=1;fontSize=14;fontFamily=Times New Roman;rounded=1;" vertex="1" parent="737hnoTCpdToOq-JtSO7-1">
          <mxGeometry x="639" y="700" width="120" height="60" as="geometry" />
        </mxCell>
        <mxCell id="7Q60qSch_FEgxLCY1BbG-0" value="SNP/InDel" style="whiteSpace=wrap;html=1;fontSize=14;fontFamily=Times New Roman;rounded=1;" vertex="1" parent="737hnoTCpdToOq-JtSO7-1">
          <mxGeometry x="451" y="260" width="120" height="60" as="geometry" />
        </mxCell>
      </root>
    </mxGraphModel>
  </diagram>
  <diagram id="n6Yq-IJFkOyLwjAZf8uK" name="lncRNA">
    <mxGraphModel dx="1422" dy="706" grid="1" gridSize="10" guides="1" tooltips="1" connect="1" arrows="1" fold="1" page="1" pageScale="1" pageWidth="827" pageHeight="1169" math="0" shadow="0">
      <root>
        <mxCell id="QmjejlGZePa0Qa-1rBb6-0" />
        <mxCell id="QmjejlGZePa0Qa-1rBb6-1" parent="QmjejlGZePa0Qa-1rBb6-0" />
        <mxCell id="QmjejlGZePa0Qa-1rBb6-4" value="" style="edgeStyle=entityRelationEdgeStyle;shape=connector;rounded=0;jumpStyle=none;jumpSize=6;orthogonalLoop=1;jettySize=auto;html=1;labelBackgroundColor=default;fontFamily=Times New Roman;fontSize=14;fontColor=default;endArrow=classic;endSize=6;targetPerimeterSpacing=0;strokeColor=default;" edge="1" parent="QmjejlGZePa0Qa-1rBb6-1" source="QmjejlGZePa0Qa-1rBb6-2" target="QmjejlGZePa0Qa-1rBb6-3">
          <mxGeometry relative="1" as="geometry" />
        </mxCell>
        <mxCell id="QmjejlGZePa0Qa-1rBb6-10" value="" style="edgeStyle=entityRelationEdgeStyle;shape=connector;rounded=0;jumpStyle=none;jumpSize=6;orthogonalLoop=1;jettySize=auto;html=1;labelBackgroundColor=default;fontFamily=Times New Roman;fontSize=14;fontColor=default;endArrow=classic;endSize=6;targetPerimeterSpacing=0;strokeColor=default;" edge="1" parent="QmjejlGZePa0Qa-1rBb6-1" source="QmjejlGZePa0Qa-1rBb6-2" target="QmjejlGZePa0Qa-1rBb6-9">
          <mxGeometry relative="1" as="geometry" />
        </mxCell>
        <mxCell id="0xXcGWVXtztSRR7EYhXG-1" value="" style="edgeStyle=entityRelationEdgeStyle;shape=connector;rounded=0;jumpStyle=none;jumpSize=6;orthogonalLoop=1;jettySize=auto;html=1;labelBackgroundColor=default;fontFamily=Times New Roman;fontSize=14;fontColor=default;endArrow=classic;endSize=6;targetPerimeterSpacing=0;strokeColor=default;" edge="1" parent="QmjejlGZePa0Qa-1rBb6-1" source="QmjejlGZePa0Qa-1rBb6-2" target="0xXcGWVXtztSRR7EYhXG-0">
          <mxGeometry relative="1" as="geometry" />
        </mxCell>
        <mxCell id="_Ld_5jGoLoK6Ce8NedDv-1" value="" style="edgeStyle=entityRelationEdgeStyle;shape=connector;rounded=0;jumpStyle=none;jumpSize=6;orthogonalLoop=1;jettySize=auto;html=1;labelBackgroundColor=default;fontFamily=Times New Roman;fontSize=14;fontColor=default;endArrow=classic;endSize=6;targetPerimeterSpacing=0;strokeColor=default;" edge="1" parent="QmjejlGZePa0Qa-1rBb6-1" source="QmjejlGZePa0Qa-1rBb6-2" target="_Ld_5jGoLoK6Ce8NedDv-0">
          <mxGeometry relative="1" as="geometry" />
        </mxCell>
        <mxCell id="6RkrMjMOFbg_5Kcv8Csv-9" value="" style="edgeStyle=entityRelationEdgeStyle;shape=connector;rounded=0;jumpStyle=none;jumpSize=6;orthogonalLoop=1;jettySize=auto;html=1;labelBackgroundColor=default;fontFamily=Times New Roman;fontSize=14;fontColor=default;endArrow=classic;endSize=6;targetPerimeterSpacing=0;strokeColor=default;" edge="1" parent="QmjejlGZePa0Qa-1rBb6-1" source="QmjejlGZePa0Qa-1rBb6-2" target="6RkrMjMOFbg_5Kcv8Csv-8">
          <mxGeometry relative="1" as="geometry" />
        </mxCell>
        <mxCell id="QmjejlGZePa0Qa-1rBb6-2" value="lncRNA" style="rounded=1;whiteSpace=wrap;html=1;fontFamily=Times New Roman;fontSize=14;fontColor=default;" vertex="1" parent="QmjejlGZePa0Qa-1rBb6-1">
          <mxGeometry x="50" y="236" width="120" height="60" as="geometry" />
        </mxCell>
        <mxCell id="QmjejlGZePa0Qa-1rBb6-6" value="" style="edgeStyle=entityRelationEdgeStyle;shape=connector;rounded=0;jumpStyle=none;jumpSize=6;orthogonalLoop=1;jettySize=auto;html=1;labelBackgroundColor=default;fontFamily=Times New Roman;fontSize=14;fontColor=default;endArrow=classic;endSize=6;targetPerimeterSpacing=0;strokeColor=default;" edge="1" parent="QmjejlGZePa0Qa-1rBb6-1" source="QmjejlGZePa0Qa-1rBb6-3" target="QmjejlGZePa0Qa-1rBb6-5">
          <mxGeometry relative="1" as="geometry" />
        </mxCell>
        <mxCell id="QmjejlGZePa0Qa-1rBb6-8" value="" style="edgeStyle=entityRelationEdgeStyle;shape=connector;rounded=0;jumpStyle=none;jumpSize=6;orthogonalLoop=1;jettySize=auto;html=1;labelBackgroundColor=default;fontFamily=Times New Roman;fontSize=14;fontColor=default;endArrow=classic;endSize=6;targetPerimeterSpacing=0;strokeColor=default;" edge="1" parent="QmjejlGZePa0Qa-1rBb6-1" source="QmjejlGZePa0Qa-1rBb6-3" target="QmjejlGZePa0Qa-1rBb6-7">
          <mxGeometry relative="1" as="geometry" />
        </mxCell>
        <mxCell id="7X_1ykPo4O7VpB3DiK4N-1" value="" style="edgeStyle=entityRelationEdgeStyle;shape=connector;rounded=0;jumpStyle=none;jumpSize=6;orthogonalLoop=1;jettySize=auto;html=1;labelBackgroundColor=default;fontFamily=Times New Roman;fontSize=14;fontColor=default;endArrow=classic;endSize=6;targetPerimeterSpacing=0;strokeColor=default;" edge="1" parent="QmjejlGZePa0Qa-1rBb6-1" source="QmjejlGZePa0Qa-1rBb6-3" target="7X_1ykPo4O7VpB3DiK4N-0">
          <mxGeometry relative="1" as="geometry" />
        </mxCell>
        <mxCell id="CbajHVmJq3S52B-VpjVp-1" value="" style="edgeStyle=entityRelationEdgeStyle;shape=connector;rounded=0;jumpStyle=none;jumpSize=6;orthogonalLoop=1;jettySize=auto;html=1;labelBackgroundColor=default;fontFamily=Times New Roman;fontSize=14;fontColor=default;endArrow=classic;endSize=6;targetPerimeterSpacing=0;strokeColor=default;" edge="1" parent="QmjejlGZePa0Qa-1rBb6-1" source="QmjejlGZePa0Qa-1rBb6-3" target="CbajHVmJq3S52B-VpjVp-0">
          <mxGeometry relative="1" as="geometry" />
        </mxCell>
        <mxCell id="CbajHVmJq3S52B-VpjVp-3" value="" style="edgeStyle=entityRelationEdgeStyle;shape=connector;rounded=0;jumpStyle=none;jumpSize=6;orthogonalLoop=1;jettySize=auto;html=1;labelBackgroundColor=default;fontFamily=Times New Roman;fontSize=14;fontColor=default;endArrow=classic;endSize=6;targetPerimeterSpacing=0;strokeColor=default;" edge="1" parent="QmjejlGZePa0Qa-1rBb6-1" source="QmjejlGZePa0Qa-1rBb6-3" target="CbajHVmJq3S52B-VpjVp-2">
          <mxGeometry relative="1" as="geometry" />
        </mxCell>
        <mxCell id="r4jNr3FI0mREcZE-HQP9-1" value="" style="edgeStyle=entityRelationEdgeStyle;shape=connector;rounded=0;jumpStyle=none;jumpSize=6;orthogonalLoop=1;jettySize=auto;html=1;labelBackgroundColor=default;fontFamily=Times New Roman;fontSize=14;fontColor=default;endArrow=classic;endSize=6;targetPerimeterSpacing=0;strokeColor=default;" edge="1" parent="QmjejlGZePa0Qa-1rBb6-1" source="QmjejlGZePa0Qa-1rBb6-3" target="r4jNr3FI0mREcZE-HQP9-0">
          <mxGeometry relative="1" as="geometry" />
        </mxCell>
        <mxCell id="QmjejlGZePa0Qa-1rBb6-3" value="互作网络" style="whiteSpace=wrap;html=1;fontSize=14;fontFamily=Times New Roman;rounded=1;" vertex="1" parent="QmjejlGZePa0Qa-1rBb6-1">
          <mxGeometry x="250" y="236" width="120" height="60" as="geometry" />
        </mxCell>
        <mxCell id="QmjejlGZePa0Qa-1rBb6-5" value="cis 调控" style="whiteSpace=wrap;html=1;fontSize=14;fontFamily=Times New Roman;rounded=1;" vertex="1" parent="QmjejlGZePa0Qa-1rBb6-1">
          <mxGeometry x="450" y="136" width="120" height="60" as="geometry" />
        </mxCell>
        <mxCell id="QmjejlGZePa0Qa-1rBb6-7" value="trans 调控" style="whiteSpace=wrap;html=1;fontSize=14;fontFamily=Times New Roman;rounded=1;" vertex="1" parent="QmjejlGZePa0Qa-1rBb6-1">
          <mxGeometry x="450" y="206" width="120" height="60" as="geometry" />
        </mxCell>
        <mxCell id="QmjejlGZePa0Qa-1rBb6-9" value="编码潜能预测" style="whiteSpace=wrap;html=1;fontSize=14;fontFamily=Times New Roman;rounded=1;" vertex="1" parent="QmjejlGZePa0Qa-1rBb6-1">
          <mxGeometry x="250" y="510" width="120" height="60" as="geometry" />
        </mxCell>
        <mxCell id="7X_1ykPo4O7VpB3DiK4N-0" value="表达&lt;br&gt;相关性网络" style="whiteSpace=wrap;html=1;fontSize=14;fontFamily=Times New Roman;rounded=1;" vertex="1" parent="QmjejlGZePa0Qa-1rBb6-1">
          <mxGeometry x="450" y="296" width="120" height="60" as="geometry" />
        </mxCell>
        <mxCell id="CbajHVmJq3S52B-VpjVp-0" value="miRNA-lncRNA&lt;br&gt;调控网络" style="whiteSpace=wrap;html=1;fontSize=14;fontFamily=Times New Roman;rounded=1;" vertex="1" parent="QmjejlGZePa0Qa-1rBb6-1">
          <mxGeometry x="450" y="376" width="120" height="60" as="geometry" />
        </mxCell>
        <mxCell id="CbajHVmJq3S52B-VpjVp-2" value="ceRNA&lt;br&gt;调控网络" style="whiteSpace=wrap;html=1;fontSize=14;fontFamily=Times New Roman;rounded=1;" vertex="1" parent="QmjejlGZePa0Qa-1rBb6-1">
          <mxGeometry x="450" y="456" width="120" height="60" as="geometry" />
        </mxCell>
        <mxCell id="0xXcGWVXtztSRR7EYhXG-0" value="保守性分析" style="whiteSpace=wrap;html=1;fontSize=14;fontFamily=Times New Roman;rounded=1;" vertex="1" parent="QmjejlGZePa0Qa-1rBb6-1">
          <mxGeometry x="250" y="680" width="120" height="60" as="geometry" />
        </mxCell>
        <mxCell id="r4jNr3FI0mREcZE-HQP9-0" value="转录因子&lt;br&gt;调控网络" style="whiteSpace=wrap;html=1;fontSize=14;fontFamily=Times New Roman;rounded=1;" vertex="1" parent="QmjejlGZePa0Qa-1rBb6-1">
          <mxGeometry x="450" y="46" width="120" height="60" as="geometry" />
        </mxCell>
        <mxCell id="_Ld_5jGoLoK6Ce8NedDv-0" value="亚细胞定位" style="whiteSpace=wrap;html=1;fontSize=14;fontFamily=Times New Roman;rounded=1;" vertex="1" parent="QmjejlGZePa0Qa-1rBb6-1">
          <mxGeometry x="250" y="36" width="120" height="60" as="geometry" />
        </mxCell>
        <mxCell id="6RkrMjMOFbg_5Kcv8Csv-8" value="RBP预测" style="whiteSpace=wrap;html=1;fontSize=14;fontFamily=Times New Roman;rounded=1;" vertex="1" parent="QmjejlGZePa0Qa-1rBb6-1">
          <mxGeometry x="250" y="590" width="120" height="60" as="geometry" />
        </mxCell>
      </root>
    </mxGraphModel>
  </diagram>
  <diagram id="H5Bac1FvbXs6LP5U_FXH" name="circRNA">
    <mxGraphModel dx="1673" dy="831" grid="1" gridSize="10" guides="1" tooltips="1" connect="1" arrows="1" fold="1" page="1" pageScale="1" pageWidth="827" pageHeight="1169" math="0" shadow="0">
      <root>
        <mxCell id="gSs0623AO6ybckm7y93t-0" />
        <mxCell id="gSs0623AO6ybckm7y93t-1" parent="gSs0623AO6ybckm7y93t-0" />
        <mxCell id="rFTJAyR8YyPa3_NaVKOX-1" value="" style="edgeStyle=entityRelationEdgeStyle;shape=connector;rounded=0;jumpStyle=none;jumpSize=6;orthogonalLoop=1;jettySize=auto;html=1;labelBackgroundColor=default;fontFamily=Times New Roman;fontSize=14;fontColor=default;endArrow=classic;endSize=6;targetPerimeterSpacing=0;strokeColor=default;" edge="1" parent="gSs0623AO6ybckm7y93t-1" source="gSs0623AO6ybckm7y93t-2" target="rFTJAyR8YyPa3_NaVKOX-0">
          <mxGeometry relative="1" as="geometry" />
        </mxCell>
        <mxCell id="atTGYw-WpSgNIz1EzUAh-1" value="" style="edgeStyle=entityRelationEdgeStyle;shape=connector;rounded=0;jumpStyle=none;jumpSize=6;orthogonalLoop=1;jettySize=auto;html=1;labelBackgroundColor=default;fontFamily=Times New Roman;fontSize=14;fontColor=default;endArrow=classic;endSize=6;targetPerimeterSpacing=0;strokeColor=default;" edge="1" parent="gSs0623AO6ybckm7y93t-1" source="gSs0623AO6ybckm7y93t-2" target="atTGYw-WpSgNIz1EzUAh-0">
          <mxGeometry relative="1" as="geometry" />
        </mxCell>
        <mxCell id="Miof6chFfShAFrEUx8-C-1" value="" style="edgeStyle=entityRelationEdgeStyle;shape=connector;rounded=0;jumpStyle=none;jumpSize=6;orthogonalLoop=1;jettySize=auto;html=1;labelBackgroundColor=default;fontFamily=Times New Roman;fontSize=14;fontColor=default;endArrow=classic;endSize=6;targetPerimeterSpacing=0;strokeColor=default;" edge="1" parent="gSs0623AO6ybckm7y93t-1" source="gSs0623AO6ybckm7y93t-2" target="Miof6chFfShAFrEUx8-C-0">
          <mxGeometry relative="1" as="geometry" />
        </mxCell>
        <mxCell id="7bmLDtfFYhnRE4A4l6aa-1" value="" style="edgeStyle=entityRelationEdgeStyle;shape=connector;rounded=0;jumpStyle=none;jumpSize=6;orthogonalLoop=1;jettySize=auto;html=1;labelBackgroundColor=default;fontFamily=Times New Roman;fontSize=14;fontColor=default;endArrow=classic;endSize=6;targetPerimeterSpacing=0;strokeColor=default;" edge="1" parent="gSs0623AO6ybckm7y93t-1" source="gSs0623AO6ybckm7y93t-2" target="7bmLDtfFYhnRE4A4l6aa-0">
          <mxGeometry relative="1" as="geometry" />
        </mxCell>
        <mxCell id="7bmLDtfFYhnRE4A4l6aa-11" value="" style="edgeStyle=entityRelationEdgeStyle;shape=connector;rounded=0;jumpStyle=none;jumpSize=6;orthogonalLoop=1;jettySize=auto;html=1;labelBackgroundColor=default;fontFamily=Times New Roman;fontSize=14;fontColor=default;endArrow=classic;endSize=6;targetPerimeterSpacing=0;strokeColor=default;" edge="1" parent="gSs0623AO6ybckm7y93t-1" source="gSs0623AO6ybckm7y93t-2" target="7bmLDtfFYhnRE4A4l6aa-10">
          <mxGeometry relative="1" as="geometry" />
        </mxCell>
        <mxCell id="ArTXeCsMO-pA-a6hPclw-1" value="" style="edgeStyle=entityRelationEdgeStyle;shape=connector;rounded=0;jumpStyle=none;jumpSize=6;orthogonalLoop=1;jettySize=auto;html=1;labelBackgroundColor=default;fontFamily=Times New Roman;fontSize=14;fontColor=default;endArrow=classic;endSize=6;targetPerimeterSpacing=0;strokeColor=default;" edge="1" parent="gSs0623AO6ybckm7y93t-1" source="gSs0623AO6ybckm7y93t-2" target="ArTXeCsMO-pA-a6hPclw-0">
          <mxGeometry relative="1" as="geometry" />
        </mxCell>
        <mxCell id="gSs0623AO6ybckm7y93t-2" value="circRNA" style="rounded=1;whiteSpace=wrap;html=1;fontFamily=Times New Roman;fontSize=14;fontColor=default;" vertex="1" parent="gSs0623AO6ybckm7y93t-1">
          <mxGeometry x="80" y="350" width="120" height="60" as="geometry" />
        </mxCell>
        <mxCell id="rFTJAyR8YyPa3_NaVKOX-3" value="" style="edgeStyle=entityRelationEdgeStyle;shape=connector;rounded=0;jumpStyle=none;jumpSize=6;orthogonalLoop=1;jettySize=auto;html=1;labelBackgroundColor=default;fontFamily=Times New Roman;fontSize=14;fontColor=default;endArrow=classic;endSize=6;targetPerimeterSpacing=0;strokeColor=default;" edge="1" parent="gSs0623AO6ybckm7y93t-1" source="rFTJAyR8YyPa3_NaVKOX-0" target="rFTJAyR8YyPa3_NaVKOX-2">
          <mxGeometry relative="1" as="geometry" />
        </mxCell>
        <mxCell id="Miof6chFfShAFrEUx8-C-3" value="" style="edgeStyle=entityRelationEdgeStyle;shape=connector;rounded=0;jumpStyle=none;jumpSize=6;orthogonalLoop=1;jettySize=auto;html=1;labelBackgroundColor=default;fontFamily=Times New Roman;fontSize=14;fontColor=default;endArrow=classic;endSize=6;targetPerimeterSpacing=0;strokeColor=default;" edge="1" parent="gSs0623AO6ybckm7y93t-1" source="rFTJAyR8YyPa3_NaVKOX-0" target="Miof6chFfShAFrEUx8-C-2">
          <mxGeometry relative="1" as="geometry" />
        </mxCell>
        <mxCell id="ArTXeCsMO-pA-a6hPclw-3" value="" style="edgeStyle=entityRelationEdgeStyle;shape=connector;rounded=0;jumpStyle=none;jumpSize=6;orthogonalLoop=1;jettySize=auto;html=1;labelBackgroundColor=default;fontFamily=Times New Roman;fontSize=14;fontColor=default;endArrow=classic;endSize=6;targetPerimeterSpacing=0;strokeColor=default;" edge="1" parent="gSs0623AO6ybckm7y93t-1" source="rFTJAyR8YyPa3_NaVKOX-0" target="ArTXeCsMO-pA-a6hPclw-2">
          <mxGeometry relative="1" as="geometry" />
        </mxCell>
        <mxCell id="rFTJAyR8YyPa3_NaVKOX-0" value="数据库注释" style="whiteSpace=wrap;html=1;fontSize=14;fontFamily=Times New Roman;rounded=1;" vertex="1" parent="gSs0623AO6ybckm7y93t-1">
          <mxGeometry x="280" y="350" width="120" height="60" as="geometry" />
        </mxCell>
        <mxCell id="rFTJAyR8YyPa3_NaVKOX-2" value="已知 circRNA&lt;br&gt;(circBank/circBase)" style="whiteSpace=wrap;html=1;fontSize=14;fontFamily=Times New Roman;rounded=1;" vertex="1" parent="gSs0623AO6ybckm7y93t-1">
          <mxGeometry x="460" y="300" width="120" height="60" as="geometry" />
        </mxCell>
        <mxCell id="atTGYw-WpSgNIz1EzUAh-0" value="互作网络" style="whiteSpace=wrap;html=1;fontSize=14;fontFamily=Times New Roman;rounded=1;" vertex="1" parent="gSs0623AO6ybckm7y93t-1">
          <mxGeometry x="280" y="450" width="120" height="60" as="geometry" />
        </mxCell>
        <mxCell id="Miof6chFfShAFrEUx8-C-0" value="保守性分析" style="whiteSpace=wrap;html=1;fontSize=14;fontFamily=Times New Roman;rounded=1;" vertex="1" parent="gSs0623AO6ybckm7y93t-1">
          <mxGeometry x="280" y="570" width="120" height="60" as="geometry" />
        </mxCell>
        <mxCell id="Miof6chFfShAFrEUx8-C-2" value="宿主基因注释" style="whiteSpace=wrap;html=1;fontSize=14;fontFamily=Times New Roman;rounded=1;" vertex="1" parent="gSs0623AO6ybckm7y93t-1">
          <mxGeometry x="460" y="390" width="120" height="60" as="geometry" />
        </mxCell>
        <mxCell id="lBhyVgX7Gc925aRyB4Vo-0" value="" style="edgeStyle=entityRelationEdgeStyle;shape=connector;rounded=0;jumpStyle=none;jumpSize=6;orthogonalLoop=1;jettySize=auto;html=1;labelBackgroundColor=default;fontFamily=Times New Roman;fontSize=14;fontColor=default;endArrow=classic;endSize=6;targetPerimeterSpacing=0;strokeColor=default;" edge="1" parent="gSs0623AO6ybckm7y93t-1" target="lBhyVgX7Gc925aRyB4Vo-3">
          <mxGeometry relative="1" as="geometry">
            <mxPoint x="400" y="480" as="sourcePoint" />
          </mxGeometry>
        </mxCell>
        <mxCell id="lBhyVgX7Gc925aRyB4Vo-1" value="" style="edgeStyle=entityRelationEdgeStyle;shape=connector;rounded=0;jumpStyle=none;jumpSize=6;orthogonalLoop=1;jettySize=auto;html=1;labelBackgroundColor=default;fontFamily=Times New Roman;fontSize=14;fontColor=default;endArrow=classic;endSize=6;targetPerimeterSpacing=0;strokeColor=default;" edge="1" parent="gSs0623AO6ybckm7y93t-1" target="lBhyVgX7Gc925aRyB4Vo-4">
          <mxGeometry relative="1" as="geometry">
            <mxPoint x="400" y="480" as="sourcePoint" />
          </mxGeometry>
        </mxCell>
        <mxCell id="lBhyVgX7Gc925aRyB4Vo-2" value="" style="edgeStyle=entityRelationEdgeStyle;shape=connector;rounded=0;jumpStyle=none;jumpSize=6;orthogonalLoop=1;jettySize=auto;html=1;labelBackgroundColor=default;fontFamily=Times New Roman;fontSize=14;fontColor=default;endArrow=classic;endSize=6;targetPerimeterSpacing=0;strokeColor=default;" edge="1" parent="gSs0623AO6ybckm7y93t-1" target="lBhyVgX7Gc925aRyB4Vo-5">
          <mxGeometry relative="1" as="geometry">
            <mxPoint x="400" y="480" as="sourcePoint" />
          </mxGeometry>
        </mxCell>
        <mxCell id="lBhyVgX7Gc925aRyB4Vo-3" value="表达&lt;br&gt;相关性网络" style="whiteSpace=wrap;html=1;fontSize=14;fontFamily=Times New Roman;rounded=1;" vertex="1" parent="gSs0623AO6ybckm7y93t-1">
          <mxGeometry x="460" y="470" width="120" height="60" as="geometry" />
        </mxCell>
        <mxCell id="lBhyVgX7Gc925aRyB4Vo-4" value="miRNA-circRNA&lt;br&gt;调控网络" style="whiteSpace=wrap;html=1;fontSize=14;fontFamily=Times New Roman;rounded=1;" vertex="1" parent="gSs0623AO6ybckm7y93t-1">
          <mxGeometry x="460" y="535" width="120" height="60" as="geometry" />
        </mxCell>
        <mxCell id="lBhyVgX7Gc925aRyB4Vo-5" value="ceRNA&lt;br&gt;调控网络" style="whiteSpace=wrap;html=1;fontSize=14;fontFamily=Times New Roman;rounded=1;" vertex="1" parent="gSs0623AO6ybckm7y93t-1">
          <mxGeometry x="460" y="600" width="120" height="60" as="geometry" />
        </mxCell>
        <mxCell id="7bmLDtfFYhnRE4A4l6aa-0" value="翻译预测" style="whiteSpace=wrap;html=1;fontSize=14;fontFamily=Times New Roman;rounded=1;" vertex="1" parent="gSs0623AO6ybckm7y93t-1">
          <mxGeometry x="280" y="670" width="120" height="60" as="geometry" />
        </mxCell>
        <mxCell id="7bmLDtfFYhnRE4A4l6aa-2" value="" style="edgeStyle=entityRelationEdgeStyle;shape=connector;rounded=0;jumpStyle=none;jumpSize=6;orthogonalLoop=1;jettySize=auto;html=1;labelBackgroundColor=default;fontFamily=Times New Roman;fontSize=14;fontColor=default;endArrow=classic;endSize=6;targetPerimeterSpacing=0;strokeColor=default;" edge="1" parent="gSs0623AO6ybckm7y93t-1" target="7bmLDtfFYhnRE4A4l6aa-6">
          <mxGeometry relative="1" as="geometry">
            <mxPoint x="400" y="700" as="sourcePoint" />
          </mxGeometry>
        </mxCell>
        <mxCell id="7bmLDtfFYhnRE4A4l6aa-3" value="" style="edgeStyle=entityRelationEdgeStyle;shape=connector;rounded=0;jumpStyle=none;jumpSize=6;orthogonalLoop=1;jettySize=auto;html=1;labelBackgroundColor=default;fontFamily=Times New Roman;fontSize=14;fontColor=default;endArrow=classic;endSize=6;targetPerimeterSpacing=0;strokeColor=default;" edge="1" parent="gSs0623AO6ybckm7y93t-1" target="7bmLDtfFYhnRE4A4l6aa-9">
          <mxGeometry relative="1" as="geometry">
            <mxPoint x="400" y="700" as="sourcePoint" />
          </mxGeometry>
        </mxCell>
        <mxCell id="7bmLDtfFYhnRE4A4l6aa-4" value="" style="edgeStyle=entityRelationEdgeStyle;shape=connector;rounded=0;jumpStyle=none;jumpSize=6;orthogonalLoop=1;jettySize=auto;html=1;labelBackgroundColor=default;fontFamily=Times New Roman;fontSize=14;fontColor=default;endArrow=classic;endSize=6;targetPerimeterSpacing=0;strokeColor=default;" edge="1" parent="gSs0623AO6ybckm7y93t-1" source="7bmLDtfFYhnRE4A4l6aa-6" target="7bmLDtfFYhnRE4A4l6aa-7">
          <mxGeometry relative="1" as="geometry" />
        </mxCell>
        <mxCell id="7bmLDtfFYhnRE4A4l6aa-5" value="" style="edgeStyle=entityRelationEdgeStyle;shape=connector;rounded=0;jumpStyle=none;jumpSize=6;orthogonalLoop=1;jettySize=auto;html=1;labelBackgroundColor=default;fontFamily=Times New Roman;fontSize=14;fontColor=default;endArrow=classic;endSize=6;targetPerimeterSpacing=0;strokeColor=default;" edge="1" parent="gSs0623AO6ybckm7y93t-1" source="7bmLDtfFYhnRE4A4l6aa-6" target="7bmLDtfFYhnRE4A4l6aa-8">
          <mxGeometry relative="1" as="geometry" />
        </mxCell>
        <mxCell id="7bmLDtfFYhnRE4A4l6aa-6" value="翻译驱动元件" style="whiteSpace=wrap;html=1;fontSize=14;fontFamily=Times New Roman;rounded=1;" vertex="1" parent="gSs0623AO6ybckm7y93t-1">
          <mxGeometry x="460" y="680" width="120" height="60" as="geometry" />
        </mxCell>
        <mxCell id="7bmLDtfFYhnRE4A4l6aa-7" value="m6A" style="whiteSpace=wrap;html=1;fontSize=14;fontFamily=Times New Roman;rounded=1;" vertex="1" parent="gSs0623AO6ybckm7y93t-1">
          <mxGeometry x="660" y="680" width="120" height="60" as="geometry" />
        </mxCell>
        <mxCell id="7bmLDtfFYhnRE4A4l6aa-8" value="IRES" style="whiteSpace=wrap;html=1;fontSize=14;fontFamily=Times New Roman;rounded=1;" vertex="1" parent="gSs0623AO6ybckm7y93t-1">
          <mxGeometry x="660" y="760" width="120" height="60" as="geometry" />
        </mxCell>
        <mxCell id="7bmLDtfFYhnRE4A4l6aa-9" value="ORF预测" style="whiteSpace=wrap;html=1;fontSize=14;fontFamily=Times New Roman;rounded=1;" vertex="1" parent="gSs0623AO6ybckm7y93t-1">
          <mxGeometry x="460" y="770" width="120" height="60" as="geometry" />
        </mxCell>
        <mxCell id="7bmLDtfFYhnRE4A4l6aa-10" value="RBP 预测" style="whiteSpace=wrap;html=1;fontSize=14;fontFamily=Times New Roman;rounded=1;" vertex="1" parent="gSs0623AO6ybckm7y93t-1">
          <mxGeometry x="280" y="850" width="120" height="60" as="geometry" />
        </mxCell>
        <mxCell id="ArTXeCsMO-pA-a6hPclw-5" value="" style="edgeStyle=entityRelationEdgeStyle;shape=connector;rounded=0;jumpStyle=none;jumpSize=6;orthogonalLoop=1;jettySize=auto;html=1;labelBackgroundColor=default;fontFamily=Times New Roman;fontSize=14;fontColor=default;endArrow=classic;endSize=6;targetPerimeterSpacing=0;strokeColor=default;" edge="1" parent="gSs0623AO6ybckm7y93t-1" source="ArTXeCsMO-pA-a6hPclw-0" target="ArTXeCsMO-pA-a6hPclw-4">
          <mxGeometry relative="1" as="geometry" />
        </mxCell>
        <mxCell id="ArTXeCsMO-pA-a6hPclw-7" value="" style="edgeStyle=entityRelationEdgeStyle;shape=connector;rounded=0;jumpStyle=none;jumpSize=6;orthogonalLoop=1;jettySize=auto;html=1;labelBackgroundColor=default;fontFamily=Times New Roman;fontSize=14;fontColor=default;endArrow=classic;endSize=6;targetPerimeterSpacing=0;strokeColor=default;" edge="1" parent="gSs0623AO6ybckm7y93t-1" source="ArTXeCsMO-pA-a6hPclw-0" target="ArTXeCsMO-pA-a6hPclw-6">
          <mxGeometry relative="1" as="geometry" />
        </mxCell>
        <mxCell id="ArTXeCsMO-pA-a6hPclw-0" value="侧翼序列分析" style="whiteSpace=wrap;html=1;fontSize=14;fontFamily=Times New Roman;rounded=1;" vertex="1" parent="gSs0623AO6ybckm7y93t-1">
          <mxGeometry x="280" y="120" width="120" height="60" as="geometry" />
        </mxCell>
        <mxCell id="ArTXeCsMO-pA-a6hPclw-2" value="TF 预测" style="whiteSpace=wrap;html=1;fontSize=14;fontFamily=Times New Roman;rounded=1;" vertex="1" parent="gSs0623AO6ybckm7y93t-1">
          <mxGeometry x="460" y="210" width="120" height="60" as="geometry" />
        </mxCell>
        <mxCell id="ArTXeCsMO-pA-a6hPclw-4" value="重复原件" style="whiteSpace=wrap;html=1;fontSize=14;fontFamily=Times New Roman;rounded=1;" vertex="1" parent="gSs0623AO6ybckm7y93t-1">
          <mxGeometry x="460" y="50" width="120" height="60" as="geometry" />
        </mxCell>
        <mxCell id="ArTXeCsMO-pA-a6hPclw-6" value="互补序列" style="whiteSpace=wrap;html=1;fontSize=14;fontFamily=Times New Roman;rounded=1;" vertex="1" parent="gSs0623AO6ybckm7y93t-1">
          <mxGeometry x="460" y="140" width="120" height="60" as="geometry" />
        </mxCell>
      </root>
    </mxGraphModel>
  </diagram>
  <diagram id="ebLw_NTYOsivmSPFlrG-" name="miRNA">
    <mxGraphModel dx="1422" dy="706" grid="1" gridSize="10" guides="1" tooltips="1" connect="1" arrows="1" fold="1" page="1" pageScale="1" pageWidth="827" pageHeight="1169" math="0" shadow="0">
      <root>
        <mxCell id="nzcXOT4XFG93VC84Ha8e-0" />
        <mxCell id="nzcXOT4XFG93VC84Ha8e-1" parent="nzcXOT4XFG93VC84Ha8e-0" />
        <mxCell id="xTjt3aByNYZxtu4C-bk5-0" value="" style="edgeStyle=entityRelationEdgeStyle;shape=connector;rounded=0;jumpStyle=none;jumpSize=6;orthogonalLoop=1;jettySize=auto;html=1;labelBackgroundColor=default;fontFamily=Times New Roman;fontSize=14;fontColor=default;endArrow=classic;endSize=6;targetPerimeterSpacing=0;strokeColor=default;" edge="1" parent="nzcXOT4XFG93VC84Ha8e-1" source="xTjt3aByNYZxtu4C-bk5-5" target="xTjt3aByNYZxtu4C-bk5-12">
          <mxGeometry relative="1" as="geometry" />
        </mxCell>
        <mxCell id="xTjt3aByNYZxtu4C-bk5-3" value="" style="edgeStyle=entityRelationEdgeStyle;shape=connector;rounded=0;jumpStyle=none;jumpSize=6;orthogonalLoop=1;jettySize=auto;html=1;labelBackgroundColor=default;fontFamily=Times New Roman;fontSize=14;fontColor=default;endArrow=classic;endSize=6;targetPerimeterSpacing=0;strokeColor=default;" edge="1" parent="nzcXOT4XFG93VC84Ha8e-1" source="xTjt3aByNYZxtu4C-bk5-5" target="xTjt3aByNYZxtu4C-bk5-21">
          <mxGeometry relative="1" as="geometry" />
        </mxCell>
        <mxCell id="xTjt3aByNYZxtu4C-bk5-5" value="&amp;nbsp;miRNA" style="rounded=1;whiteSpace=wrap;html=1;fontFamily=Times New Roman;fontSize=14;fontColor=default;" vertex="1" parent="nzcXOT4XFG93VC84Ha8e-1">
          <mxGeometry x="50" y="236" width="120" height="60" as="geometry" />
        </mxCell>
        <mxCell id="xTjt3aByNYZxtu4C-bk5-8" value="" style="edgeStyle=entityRelationEdgeStyle;shape=connector;rounded=0;jumpStyle=none;jumpSize=6;orthogonalLoop=1;jettySize=auto;html=1;labelBackgroundColor=default;fontFamily=Times New Roman;fontSize=14;fontColor=default;endArrow=classic;endSize=6;targetPerimeterSpacing=0;strokeColor=default;" edge="1" parent="nzcXOT4XFG93VC84Ha8e-1" source="xTjt3aByNYZxtu4C-bk5-12" target="xTjt3aByNYZxtu4C-bk5-16">
          <mxGeometry relative="1" as="geometry" />
        </mxCell>
        <mxCell id="xTjt3aByNYZxtu4C-bk5-9" value="" style="edgeStyle=entityRelationEdgeStyle;shape=connector;rounded=0;jumpStyle=none;jumpSize=6;orthogonalLoop=1;jettySize=auto;html=1;labelBackgroundColor=default;fontFamily=Times New Roman;fontSize=14;fontColor=default;endArrow=classic;endSize=6;targetPerimeterSpacing=0;strokeColor=default;" edge="1" parent="nzcXOT4XFG93VC84Ha8e-1" source="xTjt3aByNYZxtu4C-bk5-12" target="xTjt3aByNYZxtu4C-bk5-17">
          <mxGeometry relative="1" as="geometry" />
        </mxCell>
        <mxCell id="xTjt3aByNYZxtu4C-bk5-10" value="" style="edgeStyle=entityRelationEdgeStyle;shape=connector;rounded=0;jumpStyle=none;jumpSize=6;orthogonalLoop=1;jettySize=auto;html=1;labelBackgroundColor=default;fontFamily=Times New Roman;fontSize=14;fontColor=default;endArrow=classic;endSize=6;targetPerimeterSpacing=0;strokeColor=default;" edge="1" parent="nzcXOT4XFG93VC84Ha8e-1" source="xTjt3aByNYZxtu4C-bk5-12" target="xTjt3aByNYZxtu4C-bk5-18">
          <mxGeometry relative="1" as="geometry" />
        </mxCell>
        <mxCell id="xTjt3aByNYZxtu4C-bk5-12" value="互作网络" style="whiteSpace=wrap;html=1;fontSize=14;fontFamily=Times New Roman;rounded=1;" vertex="1" parent="nzcXOT4XFG93VC84Ha8e-1">
          <mxGeometry x="250" y="236" width="120" height="60" as="geometry" />
        </mxCell>
        <mxCell id="xTjt3aByNYZxtu4C-bk5-16" value="表达&lt;br&gt;相关性网络" style="whiteSpace=wrap;html=1;fontSize=14;fontFamily=Times New Roman;rounded=1;" vertex="1" parent="nzcXOT4XFG93VC84Ha8e-1">
          <mxGeometry x="440" y="156" width="120" height="60" as="geometry" />
        </mxCell>
        <mxCell id="xTjt3aByNYZxtu4C-bk5-17" value="miRNA-targets&lt;br&gt;调控网络" style="whiteSpace=wrap;html=1;fontSize=14;fontFamily=Times New Roman;rounded=1;" vertex="1" parent="nzcXOT4XFG93VC84Ha8e-1">
          <mxGeometry x="440" y="236" width="120" height="60" as="geometry" />
        </mxCell>
        <mxCell id="xTjt3aByNYZxtu4C-bk5-18" value="ceRNA&lt;br&gt;调控网络" style="whiteSpace=wrap;html=1;fontSize=14;fontFamily=Times New Roman;rounded=1;" vertex="1" parent="nzcXOT4XFG93VC84Ha8e-1">
          <mxGeometry x="440" y="316" width="120" height="60" as="geometry" />
        </mxCell>
        <mxCell id="xTjt3aByNYZxtu4C-bk5-21" value="亚细胞定位" style="whiteSpace=wrap;html=1;fontSize=14;fontFamily=Times New Roman;rounded=1;" vertex="1" parent="nzcXOT4XFG93VC84Ha8e-1">
          <mxGeometry x="250" y="36" width="120" height="60" as="geometry" />
        </mxCell>
      </root>
    </mxGraphModel>
  </diagram>
</mxfile>
